<svg width="24" height="25" viewBox="0 0 24 25" fill="none" xmlns="http://www.w3.org/2000/svg">
<path d="M21.8055 10.1704H21V10.1289H12V14.1289H17.6515C16.827 16.4574 14.6115 18.1289 12 18.1289C8.6865 18.1289 6 15.4424 6 12.1289C6 8.81541 8.6865 6.12891 12 6.12891C13.5295 6.12891 14.921 6.70591 15.9805 7.64841L18.809 4.81991C17.023 3.15541 14.634 2.12891 12 2.12891C6.4775 2.12891 2 6.60641 2 12.1289C2 17.6514 6.4775 22.1289 12 22.1289C17.5225 22.1289 22 17.6514 22 12.1289C22 11.4584 21.931 10.8039 21.8055 10.1704Z" fill="#FFC107"/>
<path d="M3.15302 7.47441L6.43851 9.88391C7.32752 7.68291 9.48052 6.12891 12 6.12891C13.5295 6.12891 14.921 6.70591 15.9805 7.64841L18.809 4.81991C17.023 3.15541 14.634 2.12891 12 2.12891C8.15902 2.12891 4.82802 4.29741 3.15302 7.47441Z" fill="#FF3D00"/>
<path d="M12 22.1292C14.583 22.1292 16.93 21.1407 18.7045 19.5332L15.6095 16.9142C14.5717 17.7034 13.3037 18.1303 12 18.1292C9.39897 18.1292 7.19047 16.4708 6.35847 14.1562L3.09747 16.6687C4.75247 19.9072 8.11347 22.1292 12 22.1292Z" fill="#4CAF50"/>
<path d="M21.8055 10.1704H21V10.1289H12V14.1289H17.6515C17.2571 15.2371 16.5467 16.2055 15.608 16.9144L15.6095 16.9134L18.7045 19.5324C18.4855 19.7314 22 17.1289 22 12.1289C22 11.4584 21.931 10.8039 21.8055 10.1704Z" fill="#1976D2"/>
</svg>
